<svg width="300" height="85" viewBox="0 0 300 85" xmlns="http://www.w3.org/2000/svg">
  <rect x="0" y="0" width="300" height="85" rx="20" ry="20" fill="#0D2546"/>
  
  <rect x="6" y="6" width="288" height="70" rx="15" ry="15" fill="#FFCE07"/>
  
  <path d="M 6 55 
           L 6 60 
           Q 6 76 22 76 
           L 278 76 
           Q 294 76 294 60 
           L 294 55 
           Q 294 71 278 71 
           L 22 71 
           Q 6 71 6 55 Z" 
        fill="#E59F00"/>
  
  <path d="M 20 12 
           L 280 12 
           Q 288 12 288 20 
           L 288 25 
           Q 288 18 280 18 
           L 20 18 
           Q 12 18 12 25 
           L 12 20 
           Q 12 12 20 12 Z" 
        fill="#FFF68F" opacity="0.8"/>
        
  <ellipse cx="30" cy="22" rx="8" ry="4" fill="#FFFFFF" opacity="0.6" transform="rotate(-20 30 22)"/>
</svg>